<?xml version="1.0" encoding="UTF-8" standalone="no"?>
<svg
   xmlns:dc="http://purl.org/dc/elements/1.1/"
   xmlns:cc="http://creativecommons.org/ns#"
   xmlns:rdf="http://www.w3.org/1999/02/22-rdf-syntax-ns#"
   xmlns:svg="http://www.w3.org/2000/svg"
   xmlns="http://www.w3.org/2000/svg"
   viewBox="0 0 725.86626 315.49264"
   height="315.49265"
   width="725.86627"
   xml:space="preserve"
   id="svg833"
   version="1.1"><metadata
     id="metadata839"><rdf:RDF><cc:Work
         rdf:about=""><dc:format>image/svg+xml</dc:format><dc:type
           rdf:resource="http://purl.org/dc/dcmitype/StillImage" /><dc:title></dc:title></cc:Work></rdf:RDF></metadata><defs
     id="defs837"><clipPath
       id="clipPath855"
       clipPathUnits="userSpaceOnUse"><path
         id="path853"
         d="M 0,841.89 H 1190.551 V 0 H 0 Z" /></clipPath></defs><g
     transform="matrix(1.3333333,0,0,-1.3333333,-443.05039,769.99865)"
     id="g841"><g
       transform="translate(410.5278,575.319)"
       id="g845"><path
         id="path847"
         style="fill:#ffffff;fill-opacity:1;fill-rule:nonzero;stroke:none"
         d="m 0,0 v -78.995 h -21.89 l -30.022,35.886 V -78.995 H -77.865 V 0 h 21.894 l 30.017,-35.886 V 0 Z" /></g><g
       id="g849"><g
         clip-path="url(#clipPath855)"
         id="g851"><g
           transform="translate(528.5679,504.337)"
           id="g857"><path
             id="path859"
             style="fill:#ffffff;fill-opacity:1;fill-rule:nonzero;stroke:none"
             d="M 0,0 C -6.769,6.543 -10.157,15.723 -10.157,27.533 V 70.982 H 16.476 V 28.323 c 0,-5.79 1.033,-10.006 3.104,-12.637 2.071,-2.636 5.06,-3.949 8.973,-3.949 3.912,0 6.901,1.313 8.972,3.949 2.067,2.631 3.104,6.847 3.104,12.637 V 70.982 H 66.808 V 27.533 C 66.808,15.723 63.424,6.543 56.65,0 49.882,-6.548 40.437,-9.818 28.328,-9.818 16.214,-9.818 6.773,-6.548 0,0" /></g><g
           transform="translate(617.8896,496.7189)"
           id="g861"><path
             id="path863"
             style="fill:#ffffff;fill-opacity:1;fill-rule:nonzero;stroke:none"
             d="m 0,0 c -6.208,1.469 -11.305,3.444 -15.295,5.924 l 8.577,19.409 c 3.761,-2.181 7.977,-3.93 12.642,-5.243 4.661,-1.318 9.138,-1.979 13.427,-1.979 3.687,0 6.323,0.358 7.903,1.074 1.579,0.712 2.369,1.786 2.369,3.214 0,1.658 -1.038,2.898 -3.104,3.725 -2.071,0.826 -5.474,1.73 -10.212,2.709 -6.094,1.281 -11.173,2.654 -15.237,4.119 -4.063,1.469 -7.599,3.875 -10.607,7.223 -3.013,3.347 -4.514,7.88 -4.514,13.596 0,4.969 1.392,9.483 4.174,13.547 2.783,4.059 6.943,7.26 12.472,9.592 5.529,2.328 12.242,3.495 20.144,3.495 5.414,0 10.737,-0.584 15.967,-1.75 5.23,-1.166 9.836,-2.874 13.826,-5.134 L 44.52,54.226 c -7.752,3.908 -15.085,5.869 -22.01,5.869 -6.847,0 -10.268,-1.658 -10.268,-4.969 0,-1.58 1.015,-2.764 3.05,-3.554 2.029,-0.79 5.377,-1.635 10.042,-2.539 6.016,-1.125 11.094,-2.425 15.236,-3.894 4.133,-1.465 7.728,-3.853 10.778,-7.164 3.044,-3.31 4.568,-7.824 4.568,-13.541 0,-4.969 -1.391,-9.464 -4.174,-13.487 C 48.955,6.92 44.799,3.724 39.271,1.354 33.742,-1.015 27.023,-2.2 19.126,-2.2 12.582,-2.2 6.204,-1.465 0,0" /></g><g
           transform="translate(449.4629,525.382)"
           id="g865"><path
             id="path867"
             style="fill:#ffffff;fill-opacity:1;fill-rule:nonzero;stroke:none"
             d="m 0,0 c -1.58,2.971 -2.37,6.452 -2.37,10.442 0,3.986 0.79,7.462 2.37,10.437 1.58,2.971 3.706,5.267 6.374,6.884 2.672,1.616 5.661,2.424 8.972,2.424 3.311,0 6.3,-0.808 8.973,-2.424 2.668,-1.617 4.794,-3.913 6.378,-6.884 1.579,-2.975 2.369,-6.451 2.369,-10.437 0,-3.99 -0.79,-7.471 -2.369,-10.442 -1.584,-2.971 -3.71,-5.267 -6.378,-6.883 -2.673,-1.617 -5.662,-2.425 -8.973,-2.425 -3.311,0 -6.3,0.808 -8.972,2.425 C 3.706,-5.267 1.58,-2.971 0,0 m 35.649,-26.813 c 0.883,0.39 1.751,0.808 2.606,1.254 6.773,3.536 12.077,8.445 15.911,14.726 3.839,6.282 5.758,13.372 5.758,21.275 0,7.898 -1.919,14.988 -5.758,21.269 -3.834,6.282 -9.138,11.191 -15.911,14.727 -6.768,3.536 -14.409,5.304 -22.909,5.304 -8.499,0 -16.136,-1.768 -22.909,-5.304 -6.769,-3.536 -12.072,-8.445 -15.911,-14.727 -3.839,-6.281 -5.754,-13.371 -5.754,-21.269 0,-7.903 1.915,-14.993 5.754,-21.275 3.839,-6.281 9.142,-11.19 15.911,-14.726 0.763,-0.398 1.54,-0.767 2.325,-1.12 6.108,2.7 12.875,4.05 20.301,4.05 7.543,0 14.406,-1.4 20.586,-4.184" /></g><g
           transform="translate(359.2979,408.1671)"
           id="g869"><path
             id="path871"
             style="fill:#ffffff;fill-opacity:1;fill-rule:nonzero;stroke:none"
             d="m 0,0 c -6.208,1.47 -11.305,3.444 -15.295,5.924 l 8.577,19.41 c 3.761,-2.181 7.976,-3.931 12.642,-5.244 4.66,-1.318 9.138,-1.979 13.427,-1.979 3.687,0 6.322,0.358 7.902,1.075 1.58,0.711 2.37,1.786 2.37,3.214 0,1.658 -1.038,2.897 -3.104,3.724 -2.071,0.826 -5.474,1.731 -10.213,2.709 -6.094,1.281 -11.172,2.654 -15.236,4.119 -4.064,1.469 -7.6,3.876 -10.607,7.223 -3.013,3.347 -4.514,7.88 -4.514,13.597 0,4.968 1.391,9.482 4.174,13.546 2.783,4.059 6.943,7.26 12.472,9.593 5.528,2.328 12.241,3.494 20.144,3.494 5.414,0 10.736,-0.583 15.967,-1.749 5.23,-1.167 9.836,-2.875 13.826,-5.134 L 44.519,54.227 c -7.751,3.907 -15.084,5.868 -22.009,5.868 -6.847,0 -10.268,-1.657 -10.268,-4.969 0,-1.579 1.015,-2.764 3.049,-3.554 2.03,-0.789 5.377,-1.634 10.043,-2.539 6.015,-1.125 11.094,-2.425 15.236,-3.894 4.133,-1.465 7.728,-3.852 10.777,-7.163 3.045,-3.311 4.569,-7.825 4.569,-13.542 0,-4.969 -1.392,-9.464 -4.174,-13.487 C 48.955,6.921 44.799,3.725 39.27,1.355 33.742,-1.015 27.023,-2.199 19.125,-2.199 12.582,-2.199 6.204,-1.465 0,0" /></g><g
           transform="translate(479.8774,436.8302)"
           id="g873"><path
             id="path875"
             style="fill:#ffffff;fill-opacity:1;fill-rule:nonzero;stroke:none"
             d="m 0,0 c -1.584,-2.971 -3.71,-5.267 -6.378,-6.883 -2.673,-1.617 -5.662,-2.425 -8.973,-2.425 -3.311,0 -6.3,0.808 -8.972,2.425 -2.668,1.616 -4.795,3.912 -6.374,6.883 -1.58,2.971 -2.369,6.452 -2.369,10.442 0,3.986 0.789,7.462 2.369,10.437 1.579,2.972 3.706,5.267 6.374,6.884 2.672,1.616 5.661,2.424 8.972,2.424 3.311,0 6.3,-0.808 8.973,-2.424 C -3.71,26.146 -1.584,23.851 0,20.879 1.58,17.904 2.369,14.428 2.369,10.442 2.369,6.452 1.58,2.971 0,0 m 23.469,31.712 c -3.834,6.282 -9.137,11.19 -15.911,14.726 -0.762,0.398 -1.539,0.767 -2.324,1.121 -6.18,2.784 -13.043,4.183 -20.585,4.183 -7.426,0 -14.193,-1.35 -20.301,-4.05 -0.884,-0.39 -1.753,-0.807 -2.608,-1.254 -6.768,-3.536 -12.072,-8.444 -15.911,-14.726 -3.839,-6.282 -5.754,-13.372 -5.754,-21.27 0,-7.902 1.915,-14.992 5.754,-21.274 3.839,-6.282 9.143,-11.19 15.911,-14.727 6.773,-3.536 14.409,-5.303 22.909,-5.303 8.5,0 16.141,1.767 22.909,5.303 6.774,3.537 12.077,8.445 15.911,14.727 3.839,6.282 5.759,13.372 5.759,21.274 0,7.898 -1.92,14.988 -5.759,21.27" /></g><g
           transform="translate(589.3398,407.7726)"
           id="g877"><path
             id="path879"
             style="fill:#ffffff;fill-opacity:1;fill-rule:nonzero;stroke:none"
             d="M 0,0 -0.225,36 -17.38,7.108 H -29.118 L -46.269,34.756 V 0 h -24.263 v 78.995 h 21.894 L -22.909,36.901 2.145,78.995 H 24.039 L 24.264,0 Z" /></g><g
           transform="translate(696.9971,407.7726)"
           id="g881"><path
             id="path883"
             style="fill:#ffffff;fill-opacity:1;fill-rule:nonzero;stroke:none"
             d="M 0,0 -0.225,36 -17.38,7.108 H -29.117 L -46.268,34.756 V 0 h -24.263 v 78.995 h 21.893 L -22.909,36.901 2.145,78.995 H 24.039 L 24.265,0 Z" /></g><g
           transform="translate(799.8018,427.8624)"
           id="g885"><path
             id="path887"
             style="fill:#ffffff;fill-opacity:1;fill-rule:nonzero;stroke:none"
             d="M 0,0 V -20.09 H -65.679 V 58.905 H -1.465 V 38.82 H -39.5 V 29.562 H -6.094 V 10.382 H -39.5 V 0 Z" /></g><g
           transform="translate(820.3965,408.1671)"
           id="g889"><path
             id="path891"
             style="fill:#ffffff;fill-opacity:1;fill-rule:nonzero;stroke:none"
             d="m 0,0 c -6.208,1.47 -11.306,3.444 -15.296,5.924 l 8.578,19.41 c 3.761,-2.181 7.976,-3.931 12.642,-5.244 4.66,-1.318 9.138,-1.979 13.427,-1.979 3.686,0 6.323,0.358 7.902,1.075 1.58,0.711 2.369,1.786 2.369,3.214 0,1.658 -1.037,2.897 -3.103,3.724 -2.072,0.826 -5.474,1.731 -10.213,2.709 -6.094,1.281 -11.172,2.654 -15.237,4.119 -4.063,1.469 -7.599,3.876 -10.606,7.223 -3.013,3.347 -4.515,7.88 -4.515,13.597 0,4.968 1.392,9.482 4.175,13.546 2.782,4.059 6.942,7.26 12.472,9.593 5.528,2.328 12.241,3.494 20.144,3.494 5.414,0 10.736,-0.583 15.966,-1.749 5.231,-1.167 9.836,-2.875 13.826,-5.134 L 44.519,54.227 c -7.751,3.907 -15.084,5.868 -22.009,5.868 -6.847,0 -10.268,-1.657 -10.268,-4.969 0,-1.579 1.015,-2.764 3.049,-3.554 2.029,-0.789 5.377,-1.634 10.043,-2.539 6.015,-1.125 11.094,-2.425 15.235,-3.894 4.133,-1.465 7.729,-3.852 10.778,-7.163 3.045,-3.311 4.569,-7.825 4.569,-13.542 0,-4.969 -1.392,-9.464 -4.174,-13.487 C 48.954,6.921 44.799,3.725 39.271,1.355 33.741,-1.015 27.023,-2.199 19.125,-2.199 12.582,-2.199 6.203,-1.465 0,0" /></g><g
           transform="translate(508.1753,351.2648)"
           id="g893"><path
             id="path895"
             style="fill:#ff674c;fill-opacity:1;fill-rule:nonzero;stroke:none"
             d="M 0,0 -0.103,16.46 -7.946,3.25 h -5.367 l -7.841,12.641 V 0 h -11.094 v 36.117 h 10.011 L -10.474,16.871 0.98,36.117 H 10.991 L 11.094,0 Z" /></g><g
           transform="translate(543.0015,361.2999)"
           id="g897"><path
             id="path899"
             style="fill:#ff674c;fill-opacity:1;fill-rule:nonzero;stroke:none"
             d="M 0,0 C 0.859,0.98 1.292,2.348 1.292,4.103 1.292,5.855 0.859,7.214 0,8.178 -0.861,9.142 -1.961,9.622 -3.302,9.622 -4.644,9.622 -5.744,9.142 -6.605,8.178 -7.463,7.214 -7.894,5.855 -7.894,4.103 -7.894,2.348 -7.463,0.98 -6.605,0 c 0.861,-0.98 1.961,-1.469 3.303,-1.469 1.341,0 2.441,0.489 3.302,1.469 m -11.738,-8.668 c -2.494,1.255 -4.447,2.993 -5.855,5.211 -1.411,2.219 -2.117,4.738 -2.117,7.56 0,2.82 0.706,5.338 2.117,7.558 1.408,2.219 3.361,3.947 5.855,5.186 2.494,1.238 5.305,1.858 8.436,1.858 3.164,0 5.994,-0.62 8.488,-1.858 2.494,-1.239 4.438,-2.967 5.83,-5.186 1.394,-2.22 2.089,-4.738 2.089,-7.558 0,-2.822 -0.695,-5.341 -2.089,-7.56 -1.392,-2.218 -3.336,-3.956 -5.83,-5.211 -2.494,-1.256 -5.324,-1.884 -8.488,-1.884 -3.131,0 -5.942,0.628 -8.436,1.884" /></g><g
           transform="translate(587.7603,376.8575)"
           id="g901"><path
             id="path903"
             style="fill:#ff674c;fill-opacity:1;fill-rule:nonzero;stroke:none"
             d="m 0,0 c 2.116,-2.1 3.174,-5.264 3.174,-9.494 v -16.099 h -11.66 v 14.086 c 0,3.233 -1.155,4.85 -3.458,4.85 -1.308,0 -2.366,-0.456 -3.172,-1.367 -0.811,-0.912 -1.214,-2.347 -1.214,-4.308 V -25.593 H -27.99 V 2.631 h 11.094 v -2.786 c 1.1,1.099 2.372,1.925 3.816,2.477 1.445,0.55 3.011,0.825 4.697,0.825 C -4.911,3.147 -2.114,2.098 0,0" /></g><g
           transform="translate(616.7832,352.2452)"
           id="g905"><path
             id="path907"
             style="fill:#ff674c;fill-opacity:1;fill-rule:nonzero;stroke:none"
             d="m 0,0 c -1.755,-0.997 -4.146,-1.497 -7.172,-1.497 -3.955,0 -6.999,0.955 -9.133,2.864 -2.132,1.91 -3.199,4.772 -3.199,8.591 v 7.225 h -3.869 v 8.512 h 3.869 v 7.895 h 11.66 v -7.895 h 5.781 v -8.512 h -5.781 v -7.122 c 0,-0.859 0.225,-1.531 0.672,-2.011 0.447,-0.484 1.031,-0.723 1.754,-0.723 0.997,0 1.874,0.259 2.632,0.773 z" /></g><g
           transform="translate(639.0732,361.2755)"
           id="g909"><path
             id="path911"
             style="fill:#ff674c;fill-opacity:1;fill-rule:nonzero;stroke:none"
             d="m 0,0 c 0.859,0.961 1.289,2.321 1.289,4.075 0,1.755 -0.43,3.121 -1.289,4.102 -0.86,0.98 -1.961,1.469 -3.302,1.469 -1.342,0 -2.444,-0.489 -3.302,-1.469 -0.862,-0.981 -1.29,-2.347 -1.29,-4.102 0,-1.754 0.428,-3.114 1.29,-4.075 0.858,-0.964 1.96,-1.444 3.302,-1.444 1.341,0 2.442,0.48 3.302,1.444 m 6.319,16.948 c 2.081,-1.185 3.734,-2.898 4.955,-5.133 1.22,-2.238 1.831,-4.816 1.831,-7.74 0,-2.925 -0.611,-5.495 -1.831,-7.714 -1.221,-2.218 -2.874,-3.922 -4.955,-5.108 -2.08,-1.186 -4.358,-1.78 -6.835,-1.78 -3.13,0 -5.522,0.808 -7.171,2.424 v -11.918 h -11.662 v 38.234 h 11.094 v -2.322 c 1.684,1.891 4.265,2.838 7.739,2.838 2.477,0 4.755,-0.594 6.835,-1.781" /></g><g
           transform="translate(667.4502,371.0773)"
           id="g913"><path
             id="path915"
             style="fill:#ff674c;fill-opacity:1;fill-rule:nonzero;stroke:none"
             d="m 0,0 c -0.792,-0.652 -1.306,-1.583 -1.547,-2.786 h 9.08 C 7.294,-1.616 6.777,-0.696 5.985,-0.024 5.194,0.645 4.197,0.98 2.994,0.98 1.789,0.98 0.791,0.653 0,0 M 18.266,-8.41 H -1.342 c 0.414,-1.067 1.103,-1.883 2.065,-2.45 0.963,-0.567 2.168,-0.853 3.612,-0.853 1.239,0 2.278,0.155 3.122,0.467 0.842,0.308 1.762,0.842 2.759,1.598 l 6.089,-6.14 c -2.753,-3.027 -6.862,-4.541 -12.33,-4.541 -3.406,0 -6.4,0.628 -8.978,1.884 -2.58,1.255 -4.577,3.002 -5.985,5.238 -1.411,2.235 -2.116,4.746 -2.116,7.532 0,2.821 0.696,5.339 2.088,7.559 1.394,2.219 3.302,3.947 5.727,5.185 2.426,1.239 5.152,1.859 8.18,1.859 2.853,0 5.459,-0.57 7.816,-1.703 2.356,-1.136 4.231,-2.805 5.625,-5.005 1.392,-2.202 2.089,-4.833 2.089,-7.895 0,-0.172 -0.053,-1.083 -0.155,-2.735" /></g><path
           id="path917"
           style="fill:#ff674c;fill-opacity:1;fill-rule:nonzero;stroke:none"
           d="m 689.534,389.549 h 11.661 v -38.284 h -11.661 z" /><path
           id="path919"
           style="fill:#ff674c;fill-opacity:1;fill-rule:nonzero;stroke:none"
           d="m 706.354,389.549 h 11.66 v -38.284 h -11.66 z" /><path
           id="path921"
           style="fill:#ff674c;fill-opacity:1;fill-rule:nonzero;stroke:none"
           d="m 723.175,379.488 h 11.66 v -28.224 h -11.66 z m 0.747,3.947 c -1.289,1.117 -1.934,2.536 -1.934,4.258 0,1.719 0.645,3.138 1.934,4.255 1.291,1.118 2.983,1.678 5.083,1.678 2.133,0 3.836,-0.533 5.107,-1.6 1.273,-1.066 1.909,-2.442 1.909,-4.127 0,-1.79 -0.636,-3.261 -1.909,-4.412 -1.271,-1.152 -2.974,-1.729 -5.107,-1.729 -2.1,0 -3.792,0.56 -5.083,1.677" /><g
           transform="translate(751.6035,371.0773)"
           id="g923"><path
             id="path925"
             style="fill:#ff674c;fill-opacity:1;fill-rule:nonzero;stroke:none"
             d="M 0,0 C -0.792,-0.652 -1.306,-1.583 -1.548,-2.786 H 7.533 C 7.294,-1.616 6.777,-0.696 5.985,-0.024 5.194,0.645 4.197,0.98 2.994,0.98 1.789,0.98 0.791,0.653 0,0 M 18.266,-8.41 H -1.342 c 0.414,-1.067 1.103,-1.883 2.064,-2.45 0.964,-0.567 2.169,-0.853 3.613,-0.853 1.239,0 2.278,0.155 3.122,0.467 0.842,0.308 1.762,0.842 2.759,1.598 l 6.089,-6.14 c -2.753,-3.027 -6.862,-4.541 -12.33,-4.541 -3.406,0 -6.4,0.628 -8.978,1.884 -2.58,1.255 -4.577,3.002 -5.985,5.238 -1.411,2.235 -2.117,4.746 -2.117,7.532 0,2.821 0.697,5.339 2.089,7.559 1.394,2.219 3.302,3.947 5.727,5.185 2.426,1.239 5.152,1.859 8.18,1.859 2.853,0 5.459,-0.57 7.816,-1.703 2.356,-1.136 4.231,-2.805 5.625,-5.005 1.392,-2.202 2.089,-4.833 2.089,-7.895 0,-0.172 -0.053,-1.083 -0.155,-2.735" /></g><g
           transform="translate(793.9141,380.005)"
           id="g927"><path
             id="path929"
             style="fill:#ff674c;fill-opacity:1;fill-rule:nonzero;stroke:none"
             d="m 0,0 v -10.319 c -0.93,0.136 -1.791,0.206 -2.58,0.206 -3.991,0 -5.985,-2.031 -5.985,-6.089 V -28.74 H -20.227 V -0.517 H -9.133 V -3.562 C -7.068,-1.187 -4.024,0 0,0" /></g></g></g></g></svg>
